<?xml version="1.0" encoding="utf-8"?>
<!-- Generator: Adobe Illustrator 16.0.0, SVG Export Plug-In . SVG Version: 6.00 Build 0)  -->
<!DOCTYPE svg PUBLIC "-//W3C//DTD SVG 1.1//EN" "http://www.w3.org/Graphics/SVG/1.1/DTD/svg11.dtd">
<svg version="1.1" id="Layer_1" xmlns="http://www.w3.org/2000/svg" xmlns:xlink="http://www.w3.org/1999/xlink" x="0px" y="0px"
	 width="90px" height="72px" viewBox="0 0 90 72" enable-background="new 0 0 90 72" xml:space="preserve">
<title>Group 3</title>
<desc>Created with Sketch.</desc>
<g id="Page-1">
	<g id="Group-3">
		<g id="mbri-cart-add">
			<path id="Shape" d="M76.21,0c-7.413,0-13.45,6.06-13.45,13.5S68.797,27,76.21,27s13.45-6.06,13.45-13.5S83.623,0,76.21,0z
				 M76.21,3c5.799,0,10.462,4.68,10.462,10.5S82.009,24,76.21,24c-5.798,0-10.462-4.68-10.462-10.5S70.412,3,76.21,3z M76.21,6
				c-0.827,0-1.495,0.669-1.495,1.5V12h-4.482c-0.828,0-1.494,0.669-1.494,1.5s0.666,1.5,1.494,1.5h4.482v4.5
				c0,0.831,0.668,1.5,1.495,1.5c0.828,0,1.495-0.669,1.495-1.5V15h4.482c0.828,0,1.495-0.669,1.495-1.5S83.016,12,82.188,12h-4.482
				V7.5C77.705,6.669,77.038,6,76.21,6z M31.375,39h38.857c0.828,0,1.494,0.669,1.494,1.5S71.061,42,70.232,42H31.375
				c-0.828,0-1.495-0.669-1.495-1.5S30.548,39,31.375,39z M28.387,27h35.867c0.828,0,1.494,0.669,1.494,1.5S65.082,30,64.254,30
				H28.387c-0.828,0-1.495-0.669-1.495-1.5S27.559,27,28.387,27z M64.254,57c-4.109,0-7.473,3.375-7.473,7.5s3.363,7.5,7.473,7.5
				s7.473-3.375,7.473-7.5S68.363,57,64.254,57z M64.254,60c2.493,0,4.484,1.998,4.484,4.5S66.747,69,64.254,69
				c-2.492,0-4.483-1.998-4.483-4.5S61.762,60,64.254,60z M34.365,57c-4.11,0-7.473,3.375-7.473,7.5s3.363,7.5,7.473,7.5
				c4.109,0,7.472-3.375,7.472-7.5S38.474,57,34.365,57z M34.365,60c2.493,0,4.483,1.998,4.483,4.5S36.857,69,34.365,69
				c-2.493,0-4.484-1.998-4.484-4.5S31.872,60,34.365,60z M1.51,3c-2.002,0-2.023,3,0,3h10.736c0.221,1.065,1.913,9.165,3.928,18.69
				c1.07,5.058,2.164,10.218,3.042,14.298c0.876,4.08,1.51,6.98,1.758,7.898c0.395,1.482,0.765,3.165,1.853,4.633
				c1.082,1.463,2.989,2.478,5.56,2.478h41.821c2.571,0,4.478-1.015,5.565-2.478c1.085-1.471,1.453-3.15,1.854-4.636
				c0.26-0.995,0.67-3.309,1.225-6.21c0.548-2.91,1.196-6.279,1.794-8.841c0.493-1.839-2.559-2.64-2.905-0.678
				c-0.615,2.652-1.276,6.036-1.829,8.952c-0.553,2.918-1.037,5.496-1.172,6c-0.406,1.518-0.786,2.834-1.366,3.617
				c-0.58,0.786-1.255,1.272-3.162,1.272H28.387c-1.907,0-2.583-0.486-3.168-1.272c-0.577-0.779-0.957-2.1-1.363-3.615
				c-0.149-0.578-0.837-3.68-1.716-7.754c-0.876-4.074-1.973-9.229-3.04-14.292c-2.14-10.119-4.185-19.872-4.185-19.872
				c-0.144-0.69-0.753-1.188-1.465-1.188L1.51,3z M25.404,15c-1.988,0-1.964,3,0,3H55.27c2.008,0,1.963-3,0-3H25.404z"/>
		</g>
	</g>
</g>
</svg>
